<?xml version="1.0" encoding="UTF-8"?>
<svg width="264px" height="101px" viewBox="0 0 264 101" version="1.1" xmlns="http://www.w3.org/2000/svg" xmlns:xlink="http://www.w3.org/1999/xlink">
    <title>ontap-logo</title>
    <g id="Social-Media-Posts" stroke="none" stroke-width="1" fill="none" fill-rule="evenodd">
        <g id="Web-Logo" transform="translate(-144.000000, -373.000000)">
            <g id="ontap-logo" transform="translate(144.000000, 373.000000)">
                <g id="logoSplash" transform="translate(0.000000, 0.179211)" fill="#F9F6E3">
                    <path d="M18.0336584,83.4090411 L27.4085749,83.4090411 L27.4085749,15.5156901 L18.0336584,15.5156901 L18.0336584,83.4090411 Z M36.462322,0 C37.7007337,0 38.8740243,0.245958185 39.9845704,0.736921843 C41.0936904,1.22915578 42.048009,1.87525252 42.8487937,2.67648235 C43.6483108,3.47882367 44.2930265,4.43534537 44.7842082,5.54700014 C45.2741224,6.65976642 45.5197133,7.83557039 45.5197133,9.07679384 L45.5197133,89.8477786 C45.5197133,91.089002 45.2741224,92.2660763 44.7842082,93.377731 C44.2930265,94.4904973 43.6483108,95.460357 42.8487937,96.2869924 C42.048009,97.1150569 41.0936904,97.7609949 39.9845704,98.2265529 C38.8740243,98.6919522 37.7007337,98.9247312 36.462322,98.9247312 L9.05754974,98.9247312 C7.81882108,98.9247312 6.64426294,98.6919522 5.53498444,98.2265529 C4.42459681,97.7609949 3.45696878,97.1150569 2.63210035,96.2869924 C1.80596435,95.460357 1.1612487,94.4904973 0.696685843,93.377731 C0.23228143,92.2660763 0,91.089002 0,89.8477786 L0,9.07679384 C0,7.83557039 0.23228143,6.65976642 0.696685843,5.54700014 C1.1612487,4.43534537 1.80596435,3.47882367 2.63210035,2.67648235 C3.45696878,1.87525252 4.42459681,1.22915578 5.53498444,0.736921843 C6.64426294,0.245958185 7.81882108,0 9.05754974,0 L36.462322,0 Z" id="Fill-1"></path>
                    <path d="M96.7035205,0.429058697 C96.9887328,0.71552364 97.1326165,1.06665876 97.1326165,1.48230439 L97.1326165,98.1592727 C97.1326165,98.5761957 96.9887328,98.9273309 96.7035205,99.2125184 C96.4170307,99.4989833 96.0658651,99.6415771 95.6500236,99.6415771 L85.3510816,99.6415771 L84.4147996,99.6415771 C83.9978403,99.6415771 83.5819989,99.5246917 83.1661575,99.2906016 C82.7493579,99.0565115 82.4373172,98.7577513 82.2300352,98.3933628 L65.9053849,49.7946011 C65.7351518,49.2880979 64.9868289,49.4104123 64.9868289,49.9446998 L64.9868289,98.1592727 C64.9868289,98.9779492 64.3229837,99.6415771 63.504236,99.6415771 L52.7370731,99.6415771 C51.9183254,99.6415771 51.2544803,98.9779492 51.2544803,98.1592727 L51.2544803,1.48230439 C51.2544803,0.663787497 51.9183254,0 52.7369134,0 L63.8164365,0 C64.2321182,0 64.6477999,0.117045041 65.0647592,0.351135123 C65.4804409,0.585225205 65.7926414,0.884943543 66.0010412,1.24837398 L82.4041009,49.7725653 C82.5749728,50.2782702 83.3223376,50.155317 83.3223376,49.6215086 L83.3223376,1.48230439 C83.3223376,1.06665876 83.4651034,0.71552364 83.7515932,0.429058697 C84.0368055,0.143871189 84.3879711,0 84.8047707,0 L95.6500236,0 C96.0658651,0 96.4170307,0.143871189 96.7035205,0.429058697" id="Fill-3"></path>
                </g>
                <g id="Group" transform="translate(185.842294, 50.179211) rotate(-270.000000) translate(-185.842294, -50.179211) translate(157.706093, -27.598566)" fill="#AE5F01">
                    <path d="M12.2406653,112.724014 C12.6675538,112.724014 13.0271689,112.87114 13.3190162,113.162429 C13.6123474,113.455199 13.7585184,113.814126 13.7585184,114.238716 L13.7585184,125.559482 C13.7585184,125.9858 13.8920756,126.34448 14.1577061,126.635769 C14.4248205,126.928539 14.7705853,127.07443 15.1959898,127.07443 L54.5753369,127.07443 C55.0024726,127.07443 55.3618405,127.207732 55.6536878,127.472854 C55.947019,127.739457 56.09319,128.08456 56.09319,128.509398 L56.09319,139.590961 C56.09319,140.017032 55.947019,140.375959 55.6536878,140.667248 C55.3618405,140.960018 55.0024726,141.105909 54.5753369,141.105909 L15.1959898,141.105909 C14.7705853,141.105909 14.4248205,141.239211 14.1577061,141.504333 C13.8920756,141.770936 13.7585184,142.115793 13.7585184,142.540877 L13.7585184,153.861396 C13.7585184,154.287714 13.6123474,154.646394 13.3190162,154.93793 C13.0271689,155.230453 12.6675538,155.376344 12.2406653,155.376344 L1.69681724,155.376344 C0.68598693,155.376344 0.17921147,154.871773 0.17921147,153.861396 L0.17921147,142.540877 L0.17921147,139.590961 L0.17921147,128.509398 L0.17921147,125.559482 L0.17921147,114.238716 C0.17921147,113.814126 0.326619071,113.455199 0.618713663,113.162429 C0.911797567,112.87114 1.27141276,112.724014 1.69681724,112.724014 L12.2406653,112.724014 Z" id="Fill-4"></path>
                    <path d="M12.7200428,88.9927164 L26.7782393,88.9927164 L26.7782393,70.2271786 L12.7200428,70.2271786 L12.7200428,88.9927164 Z M0.17921147,65.4361511 C0.17921147,64.1583459 0.432476656,62.9482882 0.937770383,61.8027636 C1.44454808,60.6587225 2.10986386,59.6741598 2.93470702,58.8483337 C3.76103416,58.0234966 4.74565203,57.3583852 5.89029196,56.8517631 C7.0359212,56.3466246 8.24684537,56.09319 9.52479578,56.09319 L54.5753302,56.09319 C55.0024678,56.09319 55.3618373,56.2405529 55.6539332,56.5323119 C55.9470184,56.8258015 56.09319,57.1850606 56.09319,57.6105836 L56.09319,68.709785 C56.09319,69.1367915 55.9470184,69.4960506 55.6539332,69.7880567 C55.3618373,70.0812992 55.0024678,70.2271786 54.5753302,70.2271786 L40.2774716,70.2271786 C39.8518179,70.2271786 39.4924484,70.3606954 39.1991159,70.6264927 C38.9072674,70.8932791 38.7598591,71.2391864 38.7598591,71.6644621 L38.7598591,87.4753228 C38.7598591,87.902082 38.9072674,88.2613411 39.1991159,88.5533473 C39.4924484,88.846837 39.8518179,88.9927164 40.2774716,88.9927164 L54.5753302,88.9927164 C55.5876489,88.9927164 56.09319,89.4990912 56.09319,90.5098628 L56.09319,101.529449 C56.09319,102.541209 55.5876489,103.046595 54.5753302,103.046595 L9.52479578,103.046595 C8.24684537,103.046595 7.0359212,102.807254 5.89029196,102.328077 C4.74565203,101.8489 3.76103416,101.183788 2.93470702,100.331754 C2.10986386,99.4807076 1.44454808,98.482546 0.937770383,97.3372686 C0.432476656,96.1932275 0.17921147,94.981439 0.17921147,93.7038811 L0.17921147,65.4361511 Z" id="Fill-5"></path>
                    <path d="M12.8795702,29.2785452 L27.017654,29.2785452 L27.017654,13.7324543 L12.8795702,13.7324543 L12.8795702,29.2785452 Z M0.17921147,9.50681664 C0.17921147,8.23157162 0.432476656,7.02322389 0.937770383,5.87955177 C1.44454808,4.73711392 2.10986386,3.75439026 2.93470702,2.92965282 C3.76103416,2.1063965 4.74565203,1.44236067 5.89029196,0.936557912 C7.0359212,0.432236275 8.24684537,0.17921147 9.52479578,0.17921147 L30.6922252,0.17921147 C31.9704229,0.17921147 33.1820891,0.432236275 34.326729,0.936557912 C35.4723583,1.44236067 36.4569761,2.1063965 37.2820666,2.92965282 C38.1083938,3.75439026 38.7737095,4.73711392 39.2787559,5.87955177 C39.7855336,7.02322389 40.0378095,8.23157162 40.0378095,9.50681664 L40.0378095,27.2852035 C40.0378095,27.7112725 40.1713673,28.0701975 40.4372463,28.3614846 C40.7043619,28.6542528 41.0501283,28.8001432 41.4755346,28.8001432 L54.5753302,28.8001432 C55.5876489,28.8001432 56.09319,29.305946 56.09319,30.3145892 L56.09319,41.3166015 C56.09319,42.3269727 55.5876489,42.8315412 54.5753302,42.8315412 L1.69657663,42.8315412 C0.685741843,42.8315412 0.17921147,42.3269727 0.17921147,41.3166015 L0.17921147,9.50681664 Z" id="Fill-6"></path>
                </g>
                <rect id="Rectangle" fill="#AE5F01" x="108.243728" y="0.17921147" width="155.555556" height="10.7526882" rx="5.37634409"></rect>
                <rect id="Rectangle-Copy" fill="#AE5F01" x="108.243728" y="89.0681004" width="155.555556" height="10.7526882" rx="5.37634409"></rect>
            </g>
        </g>
    </g>
</svg>